<?xml version="1.0" encoding="utf-8"?>
<!-- Generator: Adobe Illustrator 16.0.0, SVG Export Plug-In . SVG Version: 6.00 Build 0)  -->
<!DOCTYPE svg PUBLIC "-//W3C//DTD SVG 1.1//EN" "http://www.w3.org/Graphics/SVG/1.1/DTD/svg11.dtd">
<svg version="1.1" id="Layer_1" xmlns="http://www.w3.org/2000/svg" xmlns:xlink="http://www.w3.org/1999/xlink" x="0px" y="0px"
	 width="35px" height="35px" viewBox="238.5 238.5 35 35" enable-background="new 238.5 238.5 35 35" xml:space="preserve">
<g>
	<path fill="#27FF03" d="M256,238.5c-9.65,0-17.5,7.851-17.5,17.5s7.85,17.5,17.5,17.5c9.65,0,17.5-7.851,17.5-17.5
		S265.65,238.5,256,238.5z M256,272.042c-8.845,0-16.042-7.196-16.042-16.042c0-8.845,7.196-16.042,16.042-16.042
		c8.846,0,16.042,7.196,16.042,16.042C272.042,264.846,264.846,272.042,256,272.042z"/>
	<path fill="#27FF03" d="M262.957,255.387l-10.208-6.563c-0.224-0.146-0.513-0.154-0.743-0.027c-0.235,0.128-0.38,0.373-0.38,0.64
		v13.125c0,0.267,0.146,0.512,0.38,0.641c0.108,0.059,0.229,0.089,0.349,0.089c0.137,0,0.275-0.039,0.395-0.116l10.208-6.563
		c0.208-0.134,0.335-0.365,0.335-0.613S263.165,255.521,262.957,255.387z"/>
</g>
</svg>
